<svg width="14" height="12" viewBox="0 0 14 12" fill="none" xmlns="http://www.w3.org/2000/svg">
<path d="M2.99992 9.33333H7.66658V8H2.99992V9.33333ZM9.66658 9.33333H10.9999V2.66667H9.66658V9.33333ZM2.99992 6.66667H7.66658V5.33333H2.99992V6.66667ZM2.99992 4H7.66658V2.66667H2.99992V4ZM1.66659 12C1.29992 12 0.98603 11.8694 0.724919 11.6083C0.463808 11.3472 0.333252 11.0333 0.333252 10.6667V1.33333C0.333252 0.966667 0.463808 0.652778 0.724919 0.391667C0.98603 0.130556 1.29992 0 1.66659 0H12.3333C12.6999 0 13.0138 0.130556 13.2749 0.391667C13.536 0.652778 13.6666 0.966667 13.6666 1.33333V10.6667C13.6666 11.0333 13.536 11.3472 13.2749 11.6083C13.0138 11.8694 12.6999 12 12.3333 12H1.66659ZM1.66659 10.6667H12.3333V1.33333H1.66659V10.6667Z" fill="#333333" fill-opacity="0.6"/>
</svg>
