<svg width="14" height="14" viewBox="0 0 14 14" fill="none" xmlns="http://www.w3.org/2000/svg">
<path d="M7.33342 13.6666V11.6166L11.0167 7.94992C11.1167 7.84992 11.2279 7.7777 11.3501 7.73325C11.4723 7.68881 11.5945 7.66658 11.7167 7.66658C11.8501 7.66658 11.9779 7.69159 12.1001 7.74158C12.2223 7.79158 12.3334 7.86658 12.4334 7.96658L13.0501 8.58325C13.139 8.68325 13.2084 8.79436 13.2584 8.91658C13.3084 9.03881 13.3334 9.16103 13.3334 9.28325C13.3334 9.40547 13.3112 9.53047 13.2667 9.65825C13.2223 9.78603 13.1501 9.89992 13.0501 9.99992L9.38342 13.6666H7.33342ZM8.33342 12.6666H8.96675L10.9834 10.6333L10.6834 10.3166L10.3667 10.0166L8.33342 12.0333V12.6666ZM2.00008 13.6666C1.63341 13.6666 1.31953 13.536 1.05841 13.2749C0.797304 13.0138 0.666748 12.6999 0.666748 12.3333V1.66659C0.666748 1.29992 0.797304 0.98603 1.05841 0.724919C1.31953 0.463808 1.63341 0.333252 2.00008 0.333252H7.33342L11.3334 4.33325V6.33325H10.0001V4.99992H6.66675V1.66659H2.00008V12.3333H6.00008V13.6666H2.00008ZM10.6834 10.3166L10.3667 10.0166L10.9834 10.6333L10.6834 10.3166Z" fill="#333333" fill-opacity="0.87"/>
</svg>
