<svg width="12" height="14" viewBox="0 0 12 14" fill="none" xmlns="http://www.w3.org/2000/svg">
<path d="M11 12.9999C10.7222 12.9999 10.4861 12.9027 10.2916 12.7083C10.0972 12.5138 9.99996 12.2777 9.99996 11.9999C9.99996 11.7221 10.0972 11.486 10.2916 11.2916C10.4861 11.0971 10.7222 10.9999 11 10.9999C11.2777 10.9999 11.5138 11.0971 11.7083 11.2916C11.9027 11.486 12 11.7221 12 11.9999C12 12.2777 11.9027 12.5138 11.7083 12.7083C11.5138 12.9027 11.2777 12.9999 11 12.9999ZM4.66663 13.6666C3.55551 13.6666 2.61107 13.536 1.83329 13.2749C1.05551 13.0138 0.666626 12.6999 0.666626 12.3333C0.666626 12.0777 0.849959 11.8499 1.21663 11.6499C1.58329 11.4499 2.06663 11.2888 2.66663 11.1666V12.3333H3.99996V0.333252L9.33329 2.93325L5.33329 4.99992V11.0333C6.28885 11.0888 7.08329 11.236 7.71663 11.4749C8.34996 11.7138 8.66663 11.9999 8.66663 12.3333C8.66663 12.6999 8.27774 13.0138 7.49996 13.2749C6.72218 13.536 5.77774 13.6666 4.66663 13.6666Z" fill="#333333" fill-opacity="0.87"/>
</svg>
