<svg width="16" height="13" viewBox="0 0 16 13" fill="none" xmlns="http://www.w3.org/2000/svg">
<path d="M11.1334 8.66659L13.6667 6.49992L15.6667 6.66659L12.7334 9.21659L13.6 12.9999L11.9 11.9666L11.1334 8.66659ZM9.56671 3.79992L8.86671 2.16659L9.63337 0.333252L11.1667 3.94992L9.56671 3.79992ZM4.90004 10.2166L7.00004 8.94992L9.10004 10.2333L8.55004 7.83325L10.4 6.23325L7.96671 6.01659L7.00004 3.74992L6.03337 5.99992L3.60004 6.21659L5.45004 7.83325L4.90004 10.2166ZM2.88337 12.9999L3.96671 8.31659L0.333374 5.16659L5.13337 4.74992L7.00004 0.333252L8.86671 4.74992L13.6667 5.16659L10.0334 8.31659L11.1167 12.9999L7.00004 10.5166L2.88337 12.9999Z" fill="#333333" fill-opacity="0.87"/>
</svg>
