<svg width="12" height="16" viewBox="0 0 12 16" fill="none" xmlns="http://www.w3.org/2000/svg">
<path d="M5.9999 16C4.89324 16 3.9499 15.61 3.1699 14.83C2.3899 14.05 1.9999 13.1067 1.9999 12V4.8C1.5599 4.8 1.18324 4.64333 0.869902 4.33C0.556569 4.01667 0.399902 3.64 0.399902 3.2V1.6C0.399902 1.16 0.556569 0.783333 0.869902 0.47C1.18324 0.156667 1.5599 0 1.9999 0H9.9999C10.4399 0 10.8166 0.156667 11.1299 0.47C11.4432 0.783333 11.5999 1.16 11.5999 1.6V3.2C11.5999 3.64 11.4432 4.01667 11.1299 4.33C10.8166 4.64333 10.4399 4.8 9.9999 4.8V12C9.9999 13.1067 9.6099 14.05 8.8299 14.83C8.0499 15.61 7.10657 16 5.9999 16ZM1.9999 3.2H9.9999V1.6H1.9999V3.2ZM5.9999 14.4C6.66657 14.4 7.23324 14.1667 7.6999 13.7C8.16657 13.2333 8.3999 12.6667 8.3999 12H5.9999V10.4H8.3999V8.8H5.9999V7.2H8.3999V4.8H3.5999V12C3.5999 12.6667 3.83324 13.2333 4.2999 13.7C4.76657 14.1667 5.33324 14.4 5.9999 14.4Z" fill="#333333" fill-opacity="0.87"/>
</svg>
