<svg width="16" height="14" viewBox="0 0 16 14" fill="none" xmlns="http://www.w3.org/2000/svg">
<path d="M5.73317 14L4.4665 11.8667L2.0665 11.3333L2.29984 8.86667L0.666504 7L2.29984 5.13333L2.0665 2.66667L4.4665 2.13333L5.73317 0L7.99984 0.966667L10.2665 0L11.5332 2.13333L13.9332 2.66667L13.6998 5.13333L15.3332 7L13.6998 8.86667L13.9332 11.3333L11.5332 11.8667L10.2665 14L7.99984 13.0333L5.73317 14ZM6.29984 12.3L7.99984 11.5667L9.73317 12.3L10.6665 10.7L12.4998 10.2667L12.3332 8.4L13.5665 7L12.3332 5.56667L12.4998 3.7L10.6665 3.3L9.69984 1.7L7.99984 2.43333L6.2665 1.7L5.33317 3.3L3.49984 3.7L3.6665 5.56667L2.43317 7L3.6665 8.4L3.49984 10.3L5.33317 10.7L6.29984 12.3ZM7.29984 9.36667L11.0665 5.6L10.1332 4.63333L7.29984 7.46667L5.8665 6.06667L4.93317 7L7.29984 9.36667Z" fill="#00A59B"/>
</svg>
