<svg width="17" height="22" viewBox="0 0 17 22" fill="none" xmlns="http://www.w3.org/2000/svg">
<path fill-rule="evenodd" clip-rule="evenodd" d="M16.0097 0.6705L16.1543 0.850668L16.1624 0.843761L16.1697 0.836252L16.1702 0.835745L16.1729 0.83302C16.1754 0.830454 16.1794 0.826431 16.1848 0.82116C16.1955 0.810606 16.2115 0.795128 16.2317 0.77638C16.2724 0.738645 16.3288 0.688845 16.3925 0.639604C16.4349 0.606763 16.4787 0.575684 16.5216 0.54903C16.5136 0.58916 16.5048 0.628536 16.4964 0.663631C16.4903 0.689372 16.4847 0.71202 16.48 0.730942L16.4779 0.739397C16.4744 0.753552 16.4688 0.775784 16.4662 0.790796C16.3691 1.34716 16.3711 1.90969 16.373 2.44986C16.3733 2.52501 16.3736 2.59973 16.3736 2.67394C16.3736 3.17355 16.3398 3.66099 16.3052 4.16099C16.293 4.33738 16.2806 4.51532 16.2697 4.69592C16.2404 5.17681 16.2484 5.67048 16.2561 6.15098C16.2596 6.36704 16.2631 6.58044 16.2631 6.78881C16.2631 7.65431 16.2263 8.51209 16.1891 9.38114C16.1841 9.49712 16.1792 9.6133 16.1743 9.72972C16.1556 10.1725 16.1051 10.6068 16.0532 11.0524C16.0364 11.1963 16.0195 11.3413 16.0035 11.4882C15.9883 11.628 15.9768 11.7626 15.9654 11.8941C15.9429 12.1564 15.9214 12.4061 15.8742 12.6595C15.7908 13.1072 15.7613 13.5429 15.732 13.9753C15.7271 14.0467 15.7223 14.118 15.7172 14.1893C15.6882 14.5977 15.6628 15.0259 15.6553 15.4394C15.6531 15.5576 15.6415 15.6751 15.6287 15.8043L15.6269 15.8221C15.6172 15.9207 15.6071 16.0259 15.6025 16.1349C15.5829 16.1303 15.5611 16.1246 15.5368 16.1182C15.533 16.1171 15.5289 16.116 15.5247 16.1149C15.4806 16.1031 15.4183 16.0864 15.3651 16.0807C15.2277 16.0659 15.0925 16.0349 14.9423 16.0004C14.9202 15.9954 14.8977 15.9902 14.8749 15.985C14.7031 15.946 14.513 15.9061 14.3133 15.9005C13.7279 15.884 13.1241 15.7266 12.5243 15.5703C12.5057 15.5655 12.487 15.5606 12.4684 15.5558C12.3537 15.5259 12.2309 15.5036 12.1174 15.483C12.0862 15.4773 12.0557 15.4718 12.0262 15.4662C11.883 15.4393 11.7562 15.4112 11.6449 15.3684C11.2754 15.2262 10.8828 15.1402 10.5177 15.0641C10.4868 15.0577 10.4569 15.0517 10.4281 15.0459C10.2938 15.0191 10.1825 14.9969 10.0991 14.9535C10.0365 14.9209 9.97482 14.903 9.92878 14.8907C9.91445 14.8869 9.90197 14.8837 9.89079 14.8808C9.86089 14.873 9.84017 14.8677 9.8177 14.8597C9.44584 14.7272 9.07151 14.6033 8.68243 14.5036C8.47775 14.4512 8.2611 14.4058 8.04917 14.3614C7.92349 14.3351 7.79947 14.3091 7.6806 14.2822C7.35146 14.2078 7.03876 14.122 6.75096 13.992C6.41094 13.8384 6.05786 13.7197 5.71158 13.6095C5.63909 13.5864 5.56706 13.5637 5.49548 13.5412C5.2216 13.455 4.95429 13.3709 4.69255 13.2733C4.52789 13.212 4.36084 13.1474 4.19188 13.0821C3.68564 12.8865 3.16224 12.6843 2.63478 12.5413C2.57084 12.524 2.51242 12.4888 2.42758 12.4319C2.42128 12.4276 2.41476 12.4232 2.40803 12.4187C2.33293 12.368 2.23152 12.2995 2.11224 12.2581C1.99358 12.2169 1.86505 12.2828 1.82516 12.4053C1.78526 12.5279 1.84911 12.6606 1.96777 12.7018C2.03013 12.7234 2.08557 12.7606 2.17315 12.8194L2.18061 12.8244C2.26433 12.8805 2.37747 12.9555 2.51967 12.9941C3.02286 13.1305 3.51505 13.3206 4.01548 13.5139C4.18862 13.5808 4.36274 13.6481 4.53865 13.7136C4.81225 13.8156 5.09366 13.9041 5.36881 13.9907C5.43902 14.0128 5.50882 14.0347 5.57798 14.0568C5.92178 14.1662 6.25418 14.2785 6.56926 14.4209C6.89806 14.5694 7.24507 14.6629 7.58358 14.7395C7.71805 14.7699 7.84818 14.7971 7.97581 14.8238C8.17878 14.8662 8.37546 14.9073 8.57333 14.958C8.94364 15.0528 9.30362 15.1717 9.66982 15.3021C9.71282 15.3175 9.75945 15.3295 9.79319 15.3382C9.8014 15.3403 9.80884 15.3422 9.81529 15.3439C9.8548 15.3545 9.87758 15.3624 9.89495 15.3714C10.0411 15.4475 10.2307 15.4843 10.3631 15.5101C10.3868 15.5147 10.4086 15.5189 10.428 15.5229C10.7946 15.5993 11.1547 15.6792 11.4865 15.807C11.6381 15.8653 11.7985 15.8992 11.945 15.9267C11.9807 15.9335 12.0154 15.9398 12.0491 15.9459C12.1597 15.966 12.2605 15.9844 12.3576 16.0096C12.382 16.016 12.4066 16.0224 12.4313 16.0289C13.0169 16.1816 13.6642 16.3504 14.3009 16.3684C14.4538 16.3727 14.6071 16.4035 14.7776 16.4422C14.7987 16.447 14.8201 16.4519 14.8419 16.4569C14.9899 16.491 15.1527 16.5284 15.3181 16.5462C15.3343 16.548 15.3631 16.5553 15.4237 16.5714C15.474 16.5848 15.5443 16.6035 15.613 16.612C15.6743 16.6196 15.7807 16.6262 15.8791 16.5716C16.0047 16.5019 16.0533 16.3733 16.0533 16.2495C16.0533 16.1266 16.0647 16.0039 16.0779 15.8697C16.0787 15.862 16.0795 15.8542 16.0802 15.8465C16.0926 15.722 16.106 15.5865 16.1085 15.4482C16.1158 15.0473 16.1405 14.629 16.1694 14.2236C16.1746 14.1495 16.1796 14.0763 16.1845 14.004C16.214 13.5705 16.2416 13.1657 16.3194 12.748C16.3709 12.4715 16.396 12.1806 16.4199 11.9049C16.4308 11.7794 16.4414 11.657 16.454 11.5405C16.4692 11.4017 16.4855 11.2618 16.5019 11.121C16.5542 10.6713 16.6077 10.2124 16.6272 9.75004C16.632 9.63402 16.637 9.51801 16.642 9.40199C16.6792 8.53405 16.7164 7.66537 16.7164 6.78881C16.7164 6.56336 16.7128 6.34075 16.7092 6.12005C16.7015 5.64935 16.694 5.18738 16.7221 4.72527C16.7325 4.55368 16.7445 4.38128 16.7565 4.20809C16.7915 3.70327 16.8269 3.19173 16.8269 2.67394C16.8269 2.59748 16.8267 2.52161 16.8264 2.44627C16.8247 1.90191 16.8231 1.38509 16.9123 0.873832C16.9121 0.875195 16.912 0.87605 16.912 0.87605C16.912 0.87605 16.9135 0.86999 16.9181 0.851443L16.9192 0.84701C16.9238 0.828189 16.93 0.803334 16.9367 0.77509C16.9511 0.714501 16.9689 0.634598 16.9818 0.554183C16.9939 0.478596 17.0052 0.383179 16.9975 0.298963C16.9938 0.258861 16.9838 0.194752 16.9474 0.134308C16.9026 0.0598858 16.8214 0 16.7152 0C16.5934 0 16.4768 0.0453118 16.3846 0.0928438C16.2888 0.142268 16.1974 0.205631 16.1207 0.264939C16.0433 0.324813 15.9762 0.384127 15.9287 0.428227C15.9048 0.450397 15.8855 0.469018 15.872 0.482332C15.8664 0.487891 15.8617 0.492538 15.8581 0.496148L15.8537 0.499876C15.846 0.506364 15.8346 0.515821 15.8205 0.527343C15.7923 0.550492 15.7536 0.581479 15.7116 0.61329C15.6691 0.645433 15.6256 0.676615 15.5871 0.701054C15.5474 0.726316 15.5276 0.734961 15.5248 0.736166C15.3712 0.781167 15.2163 0.890023 15.0993 0.974588C15.0785 0.989592 15.0586 1.00406 15.0395 1.01794C14.9348 1.09411 14.8543 1.15263 14.7855 1.18558C14.6873 1.23257 14.5946 1.30443 14.521 1.36394C14.4992 1.38156 14.4789 1.39817 14.4598 1.41382C14.407 1.4572 14.3631 1.49324 14.3195 1.5232C14.2093 1.59906 14.1059 1.68352 14.0107 1.76129C14.0039 1.7669 13.9971 1.77247 13.9903 1.778C13.8867 1.86254 13.7915 1.93905 13.6913 2.00478C13.6458 2.0346 13.6008 2.0621 13.5524 2.09164C13.539 2.09981 13.5253 2.10815 13.5113 2.11673C13.4487 2.15514 13.3816 2.19721 13.3147 2.24545C13.2546 2.2888 13.2106 2.33881 13.1815 2.37224L13.1756 2.37899C13.1466 2.41239 13.1323 2.42877 13.115 2.44336C13.0134 2.52935 12.9128 2.58679 12.7788 2.66325C12.762 2.67289 12.7445 2.68283 12.7265 2.69318C12.5583 2.78973 12.4098 2.92273 12.2798 3.04834C12.2343 3.09226 12.1919 3.13435 12.1512 3.17474C12.0687 3.25672 11.9932 3.33166 11.9133 3.40064C11.6785 3.60327 11.4604 3.80965 11.2464 4.01343C11.2316 4.02758 11.2167 4.04171 11.2019 4.05583C11.0022 4.24606 10.8053 4.43365 10.5955 4.61918C10.4019 4.79043 10.206 4.95045 10.0067 5.11321C9.91829 5.18537 9.82926 5.25806 9.73949 5.33251C9.45086 5.57189 9.16152 5.82395 8.8925 6.11368C8.70403 6.31667 8.48934 6.49166 8.2597 6.67268C8.2337 6.69317 8.20747 6.71377 8.18107 6.73451C7.97818 6.89384 7.76487 7.06136 7.56791 7.25048C7.38381 7.42727 7.27094 7.5217 7.0973 7.66697C7.07873 7.68251 7.05947 7.69863 7.03935 7.71549C6.82984 7.89106 6.53521 8.141 5.9826 8.64181C5.42884 9.14367 5.21039 9.33372 5.05625 9.44556C4.96458 9.51208 4.90215 9.54736 4.80238 9.60374C4.73 9.64465 4.63796 9.69666 4.50085 9.77976C4.12144 10.0097 3.85184 10.2752 3.60064 10.5289C3.58666 10.543 3.57275 10.5571 3.55889 10.5711C3.3217 10.811 3.09808 11.0372 2.79467 11.2439C2.69636 11.3109 2.59745 11.3835 2.50212 11.4536C2.46596 11.4801 2.43031 11.5063 2.39541 11.5317C2.26525 11.6262 2.14004 11.7133 2.01293 11.7861C1.90346 11.8488 1.86395 11.9913 1.92468 12.1043C1.98541 12.2173 2.12338 12.2581 2.23285 12.1954C2.38183 12.1101 2.52306 12.0112 2.65625 11.9145C2.69557 11.8859 2.73382 11.8578 2.77142 11.8302C2.86426 11.762 2.95314 11.6967 3.04435 11.6346C3.38532 11.4022 3.6374 11.1471 3.87098 10.9107C3.88661 10.8949 3.90215 10.8791 3.91764 10.8635C4.1664 10.6122 4.40238 10.3822 4.73034 10.1834C4.83413 10.1205 4.91824 10.0726 4.99214 10.0305C5.11405 9.96106 5.20815 9.90745 5.3169 9.82854C5.49562 9.69886 5.73487 9.48913 6.28165 8.99361C6.82957 8.49704 7.11973 8.25098 7.32503 8.07893C7.34506 8.06215 7.36436 8.046 7.38307 8.03035C7.55728 7.88461 7.68089 7.78121 7.87663 7.59326C8.05603 7.421 8.25054 7.26816 8.45541 7.10718C8.4817 7.08652 8.50816 7.06573 8.53478 7.04474C8.76492 6.86333 9.00466 6.66926 9.21974 6.43762C9.4682 6.17002 9.73939 5.93298 10.0234 5.69745C10.1074 5.62777 10.1932 5.55769 10.2799 5.48689C10.4825 5.32145 10.6899 5.15208 10.8905 4.97465C11.1068 4.78328 11.3096 4.59012 11.5082 4.40095C11.5234 4.38646 11.5386 4.37199 11.5537 4.35754C11.7679 4.15359 11.9786 3.95429 12.204 3.7598C12.2962 3.68024 12.3909 3.58622 12.4797 3.49818C12.5176 3.46056 12.5544 3.42403 12.5894 3.39019C12.7142 3.26967 12.8293 3.16969 12.9467 3.10231C12.9637 3.09261 12.9807 3.08291 12.9979 3.07313C13.1287 2.99873 13.2667 2.92019 13.4024 2.8054C13.4483 2.76656 13.486 2.72294 13.5105 2.6945C13.5134 2.69117 13.5161 2.68804 13.5186 2.68516C13.5465 2.6531 13.5606 2.63905 13.5742 2.62923C13.6268 2.59131 13.682 2.55645 13.7428 2.51917C13.7548 2.51182 13.7671 2.5043 13.7797 2.49663C13.8289 2.46661 13.8821 2.43418 13.9344 2.39991C14.0568 2.31958 14.1689 2.22887 14.2714 2.1452L14.2885 2.13128C14.387 2.05082 14.4767 1.97757 14.5709 1.91271C14.6318 1.8708 14.6972 1.81708 14.7539 1.77052C14.7702 1.75712 14.7858 1.74431 14.8004 1.73254C14.8741 1.67294 14.9304 1.63216 14.9761 1.61028C15.0859 1.55774 15.2071 1.46911 15.3088 1.39481C15.3262 1.38208 15.343 1.36977 15.3591 1.35813C15.4869 1.26582 15.5802 1.20655 15.6482 1.18663C15.7122 1.16788 15.7772 1.12993 15.8249 1.09961C15.8777 1.06601 15.9321 1.02677 15.9796 0.990814C16.0275 0.954526 16.0709 0.919738 16.1022 0.894135C16.1179 0.881282 16.1307 0.870619 16.1396 0.863081L16.1502 0.854207L16.1531 0.851728L16.1543 0.850668C16.1543 0.850668 16.1543 0.850668 16.0097 0.6705Z" fill="#6A6EEC"/>
<path fill-rule="evenodd" clip-rule="evenodd" d="M7.76382 14.7447C7.889 14.7447 7.99049 14.8495 7.99049 14.9787C7.99049 15.1578 7.99099 15.3373 7.9915 15.5172C7.99365 16.2756 7.99581 17.0409 7.96006 17.8045C7.95681 17.874 7.95298 17.9402 7.94925 18.0047C7.94783 18.0293 7.94642 18.0535 7.94507 18.0777C7.94878 18.0755 7.95248 18.0734 7.95617 18.0713C7.96028 18.0689 7.96437 18.0666 7.96844 18.0643C8.04721 18.0192 8.11835 17.9785 8.18582 17.9337C8.60295 17.6573 9.00235 17.3787 9.3745 17.0594C9.46489 16.9818 9.55615 16.9011 9.64878 16.8192C9.93081 16.5699 10.2256 16.3092 10.5473 16.091C10.5756 16.0719 10.61 16.0504 10.6426 16.03C10.6494 16.0257 10.6562 16.0215 10.6628 16.0173C10.7035 15.9918 10.7436 15.9662 10.7812 15.9398C10.8192 15.9132 10.8504 15.8886 10.8738 15.8664C10.896 15.8454 10.9035 15.8337 10.9045 15.8321C10.9611 15.7168 11.0976 15.6707 11.2093 15.7292C11.3209 15.7877 11.3655 15.9285 11.3088 16.0438C11.2459 16.1718 11.12 16.268 11.0361 16.3269C10.9883 16.3605 10.9398 16.3913 10.8982 16.4174C10.8899 16.4226 10.882 16.4275 10.8744 16.4323C10.8421 16.4525 10.8168 16.4683 10.7962 16.4823C10.5007 16.6827 10.2373 16.9155 9.96117 17.1596C9.86441 17.2451 9.76608 17.332 9.66426 17.4194C9.27029 17.7574 8.85213 18.0484 8.43071 18.3277C8.35044 18.3809 8.26729 18.4284 8.19156 18.4718C8.18634 18.4747 8.18115 18.4777 8.17601 18.4807C8.09368 18.5278 8.01989 18.5706 7.95143 18.6177C7.94395 18.6229 7.93739 18.6282 7.92441 18.6388C7.92197 18.6407 7.91931 18.6429 7.91636 18.6453L7.91444 18.6469C7.9037 18.6557 7.86658 18.6863 7.82326 18.7043C7.79691 18.7152 7.73999 18.7339 7.67047 18.716C7.59161 18.6958 7.54268 18.6412 7.51733 18.5945C7.49517 18.5537 7.48774 18.5143 7.48454 18.4918C7.48095 18.4665 7.48001 18.4417 7.48001 18.4197C7.48001 18.265 7.489 18.1092 7.49755 17.9612C7.50108 17.8999 7.50454 17.8399 7.50726 17.7819C7.54239 17.0314 7.54029 16.2811 7.53817 15.5236C7.53766 15.3424 7.53715 15.1608 7.53715 14.9787C7.53715 14.8495 7.63864 14.7447 7.76382 14.7447Z" fill="#6A6EEC"/>
<path fill-rule="evenodd" clip-rule="evenodd" d="M16.648 0.492759C16.76 0.550527 16.8054 0.691095 16.7495 0.806726C16.6964 0.916481 16.5921 1.10255 16.4823 1.29862C16.4503 1.35577 16.4178 1.41378 16.386 1.47099C16.2375 1.73784 16.1056 1.98323 16.059 2.10659C15.9004 2.52628 15.8062 2.7307 15.6838 2.92389C15.6261 3.01494 15.5633 3.10167 15.49 3.20274L15.4839 3.21117C15.4072 3.31701 15.315 3.44447 15.1948 3.62174C15.0974 3.76541 14.9263 4.0831 14.759 4.42064C14.5923 4.75685 14.4411 5.08878 14.3804 5.25588C14.2938 5.49448 14.1704 5.70499 14.0489 5.89747C14.0159 5.94981 13.9834 6.00021 13.9516 6.0495C13.8627 6.18746 13.7794 6.31675 13.7049 6.45544C13.3124 7.18647 12.8609 7.91376 12.4003 8.60455C12.1913 8.91787 11.9744 9.18655 11.7679 9.44227C11.7351 9.48296 11.7025 9.52331 11.6702 9.56347C11.4334 9.85841 11.211 10.1469 11.011 10.4966C10.8088 10.85 10.6065 11.1416 10.4244 11.404C10.4123 11.4214 10.4003 11.4387 10.3884 11.4559C10.1954 11.7344 10.0303 11.9776 9.89959 12.2429C9.67045 12.7079 9.42697 12.9789 9.13173 13.3075C9.08873 13.3553 9.04463 13.4044 8.99932 13.4555C8.85585 13.6172 8.69931 13.7644 8.55155 13.9034C8.53654 13.9175 8.52162 13.9315 8.50681 13.9455L8.50603 13.9462C8.47181 13.9785 8.43743 14.0109 8.4095 14.0448C8.39588 14.0613 8.38777 14.0736 8.38361 14.0812C8.36391 14.2029 8.25519 14.2889 8.135 14.2752C8.01058 14.2609 7.92092 14.1452 7.93473 14.0167C7.94802 13.8932 8.02009 13.795 8.06415 13.7415C8.11125 13.6843 8.16446 13.6343 8.19561 13.605C8.19757 13.6032 8.19945 13.6014 8.20123 13.5997C8.21577 13.586 8.23022 13.5724 8.2446 13.5589C8.39487 13.4175 8.5362 13.2846 8.66502 13.1394C8.7126 13.0857 8.75787 13.0352 8.80113 12.987C9.09564 12.6585 9.29652 12.4345 9.49555 12.0306C9.64386 11.7297 9.82824 11.4598 10.0197 11.1835C10.0312 11.167 10.0427 11.1505 10.0542 11.1339C10.2372 10.87 10.429 10.5936 10.6206 10.2586C10.8399 9.87529 11.0815 9.56323 11.3212 9.26469C11.3547 9.22306 11.388 9.18176 11.4212 9.14061C11.6281 8.88429 11.8307 8.63333 12.0269 8.3391C12.4821 7.65636 12.9252 6.94234 13.3085 6.22847C13.3926 6.07172 13.4906 5.91971 13.5823 5.77745C13.6121 5.73116 13.6413 5.6859 13.6691 5.64185C13.7864 5.45611 13.8874 5.28053 13.9559 5.09164C14.0265 4.89725 14.1882 4.54462 14.3554 4.20734C14.522 3.87141 14.7058 3.5267 14.8235 3.35324C14.9479 3.16975 15.0436 3.03753 15.1209 2.93078L15.1216 2.9299C15.1994 2.82248 15.2547 2.7462 15.3045 2.66762C15.4005 2.51608 15.481 2.34827 15.6366 1.93643C15.6985 1.7727 15.8514 1.49203 15.9929 1.23778C16.0283 1.17419 16.0633 1.11176 16.0968 1.05184C16.2045 0.859585 16.2976 0.693221 16.3439 0.59753C16.3999 0.481899 16.536 0.434991 16.648 0.492759Z" fill="#6A6EEC"/>
<path fill-rule="evenodd" clip-rule="evenodd" d="M4.0162 16.1511C4.14024 16.1336 4.2545 16.2233 4.2714 16.3514C4.32497 16.7572 4.32187 17.1276 4.23183 17.4822C4.14137 17.8384 3.96692 18.1641 3.6979 18.4862C3.51333 18.7072 3.27148 18.9801 2.99902 19.2129C2.72999 19.4429 2.41047 19.6518 2.06952 19.7164C2.06837 19.7166 2.06722 19.7168 2.06608 19.717C1.81874 20.3563 1.44532 20.9352 1.00042 21.4236C0.889509 21.5453 0.769012 21.6356 0.663754 21.7126C0.65406 21.7196 0.644521 21.7266 0.635128 21.7334C0.538297 21.8041 0.457072 21.8633 0.382213 21.9362C0.291156 22.0249 0.147699 22.0206 0.0617935 21.9266C-0.024112 21.8325 -0.0199355 21.6844 0.0711219 21.5957C0.170778 21.4986 0.278505 21.4203 0.37164 21.3525C0.381894 21.345 0.391971 21.3377 0.401841 21.3305C0.505739 21.2546 0.593198 21.1874 0.670232 21.1028C1.07071 20.6633 1.4042 20.1485 1.62824 19.5862C1.52241 19.5057 1.42683 19.3981 1.3461 19.291C1.17806 19.0682 1.04149 18.8031 0.984563 18.6525C0.897612 18.4224 0.852026 18.163 0.896475 17.9169C0.942609 17.6614 1.0845 17.4326 1.34364 17.2869C1.58444 17.1516 1.82789 17.0973 2.03678 17.2116C2.23743 17.3214 2.31942 17.5414 2.35523 17.7249C2.42848 18.1001 2.36179 18.5971 2.307 18.8817C2.28836 18.9786 2.26674 19.0744 2.24229 19.1693C2.39507 19.0963 2.5527 18.9867 2.70997 18.8523C2.9531 18.6446 3.17545 18.395 3.3546 18.1805C3.58644 17.9029 3.72323 17.6395 3.79331 17.3635C3.86381 17.0858 3.87056 16.7808 3.82222 16.4146C3.80532 16.2865 3.89217 16.1685 4.0162 16.1511ZM1.78878 19.107C1.81722 19.0027 1.84183 18.8971 1.86236 18.7905C1.91589 18.5124 1.96496 18.0947 1.91083 17.8174C1.88296 17.6746 1.84048 17.6339 1.82456 17.6252C1.81688 17.621 1.75165 17.5906 1.56036 17.6981C1.42792 17.7725 1.36472 17.8775 1.34213 18.0027C1.31785 18.1371 1.33991 18.3051 1.40688 18.4823C1.44774 18.5904 1.56245 18.816 1.70382 19.0035C1.73255 19.0416 1.76102 19.0763 1.78878 19.107Z" fill="#6A6EEC"/>
</svg>
