<svg width="25" height="24" viewBox="0 0 25 24" fill="none" xmlns="http://www.w3.org/2000/svg">
<path d="M12.5 2C6.98 2 2.5 6.48 2.5 12C2.5 17.52 6.98 22 12.5 22C18.02 22 22.5 17.52 22.5 12C22.5 6.48 18.02 2 12.5 2ZM16.5 13H13.5V16C13.5 16.55 13.05 17 12.5 17C11.95 17 11.5 16.55 11.5 16V13H8.5C7.95 13 7.5 12.55 7.5 12C7.5 11.45 7.95 11 8.5 11H11.5V8C11.5 7.45 11.95 7 12.5 7C13.05 7 13.5 7.45 13.5 8V11H16.5C17.05 11 17.5 11.45 17.5 12C17.5 12.55 17.05 13 16.5 13Z" fill="#333333" fill-opacity="0.87"/>
</svg>
