<svg width="8" height="5" viewBox="0 0 8 5" fill="none" xmlns="http://www.w3.org/2000/svg">
<path d="M1.41336 0.192727L4.00002 2.77939L6.58669 0.192727C6.64841 0.131006 6.72169 0.0820464 6.80233 0.0486431C6.88297 0.0152398 6.9694 -0.00195312 7.05669 -0.00195312C7.14398 -0.00195313 7.23041 0.0152398 7.31105 0.0486431C7.3917 0.0820464 7.46497 0.131006 7.52669 0.192727C7.58841 0.254449 7.63737 0.327723 7.67078 0.408365C7.70418 0.489008 7.72137 0.57544 7.72137 0.662727C7.72137 0.750014 7.70418 0.836447 7.67078 0.917089C7.63737 0.997732 7.58841 1.07101 7.52669 1.13273L4.46669 4.19273C4.40502 4.25453 4.33176 4.30356 4.25111 4.33702C4.17046 4.37047 4.084 4.38769 3.99669 4.38769C3.90938 4.38769 3.82292 4.37047 3.74227 4.33702C3.66163 4.30356 3.58837 4.25453 3.52669 4.19273L0.466691 1.13273C0.404889 1.07105 0.355857 0.997792 0.322403 0.917144C0.288948 0.836495 0.271729 0.75004 0.271729 0.662727C0.271729 0.575415 0.288948 0.48896 0.322403 0.408311C0.355857 0.327662 0.404889 0.254403 0.466691 0.192727C0.726691 -0.0606059 1.15336 -0.0672726 1.41336 0.192727Z" fill="#333333" fill-opacity="0.6"/>
</svg>
