<svg width="11" height="11" viewBox="0 0 11 11" fill="none" xmlns="http://www.w3.org/2000/svg">
<path d="M2.16634 2.9987H1.33301V8.83203C1.33301 9.29036 1.70801 9.66536 2.16634 9.66536H7.99967V8.83203H2.16634V2.9987ZM8.83301 1.33203H3.83301C3.37467 1.33203 2.99967 1.70703 2.99967 2.16536V7.16536C2.99967 7.6237 3.37467 7.9987 3.83301 7.9987H8.83301C9.29134 7.9987 9.66634 7.6237 9.66634 7.16536V2.16536C9.66634 1.70703 9.29134 1.33203 8.83301 1.33203ZM8.41634 5.08203H4.24967V4.2487H8.41634V5.08203ZM6.74967 6.7487H4.24967V5.91536H6.74967V6.7487ZM8.41634 3.41536H4.24967V2.58203H8.41634V3.41536Z" fill="#333333" fill-opacity="0.87"/>
</svg>
