<svg width="25" height="20" viewBox="0 0 25 20" fill="none" xmlns="http://www.w3.org/2000/svg">
<path d="M22.625 0.625C21.3762 0.23125 20.0037 0.0625 18.6875 0.0625C16.4937 0.0625 14.1313 0.5125 12.5 1.75C10.8687 0.5125 8.50625 0.0625 6.3125 0.0625C4.11875 0.0625 1.75625 0.5125 0.125 1.75V18.2312C0.125 18.5125 0.40625 18.7937 0.6875 18.7937C0.8 18.7937 0.85625 18.7375 0.96875 18.7375C2.4875 18.0063 4.68125 17.5 6.3125 17.5C8.50625 17.5 10.8687 17.95 12.5 19.1875C14.0188 18.2313 16.775 17.5 18.6875 17.5C20.5438 17.5 22.4562 17.8375 24.0312 18.6812C24.1437 18.7375 24.2 18.7375 24.3125 18.7375C24.5938 18.7375 24.875 18.4563 24.875 18.175V1.75C24.2 1.24375 23.4688 0.90625 22.625 0.625ZM22.625 15.8125C21.3875 15.4187 20.0375 15.25 18.6875 15.25C16.775 15.25 14.0188 15.9812 12.5 16.9375V4C14.0188 3.04375 16.775 2.3125 18.6875 2.3125C20.0375 2.3125 21.3875 2.48125 22.625 2.875V15.8125Z" fill="#364699"/>
</svg>
