<svg width="18" height="20" viewBox="0 0 18 20" fill="none" xmlns="http://www.w3.org/2000/svg">
<path d="M2 20.001C1.45 20.001 0.979167 19.8051 0.5875 19.4135C0.195833 19.0218 0 18.551 0 18.001V4.00098C0 3.45098 0.195833 2.98014 0.5875 2.58848C0.979167 2.19681 1.45 2.00098 2 2.00098H3V0.000976562H5V2.00098H13V0.000976562H15V2.00098H16C16.55 2.00098 17.0208 2.19681 17.4125 2.58848C17.8042 2.98014 18 3.45098 18 4.00098V18.001C18 18.551 17.8042 19.0218 17.4125 19.4135C17.0208 19.8051 16.55 20.001 16 20.001H2ZM2 18.001H16V8.00098H2V18.001ZM2 6.00098H16V4.00098H2V6.00098ZM9 12.001C8.71667 12.001 8.47917 11.9051 8.2875 11.7135C8.09583 11.5218 8 11.2843 8 11.001C8 10.7176 8.09583 10.4801 8.2875 10.2885C8.47917 10.0968 8.71667 10.001 9 10.001C9.28333 10.001 9.52083 10.0968 9.7125 10.2885C9.90417 10.4801 10 10.7176 10 11.001C10 11.2843 9.90417 11.5218 9.7125 11.7135C9.52083 11.9051 9.28333 12.001 9 12.001ZM5 12.001C4.71667 12.001 4.47917 11.9051 4.2875 11.7135C4.09583 11.5218 4 11.2843 4 11.001C4 10.7176 4.09583 10.4801 4.2875 10.2885C4.47917 10.0968 4.71667 10.001 5 10.001C5.28333 10.001 5.52083 10.0968 5.7125 10.2885C5.90417 10.4801 6 10.7176 6 11.001C6 11.2843 5.90417 11.5218 5.7125 11.7135C5.52083 11.9051 5.28333 12.001 5 12.001ZM13 12.001C12.7167 12.001 12.4792 11.9051 12.2875 11.7135C12.0958 11.5218 12 11.2843 12 11.001C12 10.7176 12.0958 10.4801 12.2875 10.2885C12.4792 10.0968 12.7167 10.001 13 10.001C13.2833 10.001 13.5208 10.0968 13.7125 10.2885C13.9042 10.4801 14 10.7176 14 11.001C14 11.2843 13.9042 11.5218 13.7125 11.7135C13.5208 11.9051 13.2833 12.001 13 12.001ZM9 16.001C8.71667 16.001 8.47917 15.9051 8.2875 15.7135C8.09583 15.5218 8 15.2843 8 15.001C8 14.7176 8.09583 14.4801 8.2875 14.2885C8.47917 14.0968 8.71667 14.001 9 14.001C9.28333 14.001 9.52083 14.0968 9.7125 14.2885C9.90417 14.4801 10 14.7176 10 15.001C10 15.2843 9.90417 15.5218 9.7125 15.7135C9.52083 15.9051 9.28333 16.001 9 16.001ZM5 16.001C4.71667 16.001 4.47917 15.9051 4.2875 15.7135C4.09583 15.5218 4 15.2843 4 15.001C4 14.7176 4.09583 14.4801 4.2875 14.2885C4.47917 14.0968 4.71667 14.001 5 14.001C5.28333 14.001 5.52083 14.0968 5.7125 14.2885C5.90417 14.4801 6 14.7176 6 15.001C6 15.2843 5.90417 15.5218 5.7125 15.7135C5.52083 15.9051 5.28333 16.001 5 16.001ZM13 16.001C12.7167 16.001 12.4792 15.9051 12.2875 15.7135C12.0958 15.5218 12 15.2843 12 15.001C12 14.7176 12.0958 14.4801 12.2875 14.2885C12.4792 14.0968 12.7167 14.001 13 14.001C13.2833 14.001 13.5208 14.0968 13.7125 14.2885C13.9042 14.4801 14 14.7176 14 15.001C14 15.2843 13.9042 15.5218 13.7125 15.7135C13.5208 15.9051 13.2833 16.001 13 16.001Z" fill="#333333" fill-opacity="0.6"/>
</svg>
