<svg width="17" height="20" viewBox="0 0 17 20" xmlns="http://www.w3.org/2000/svg">
    <mask id="mask0_3001_8036" style="mask-type:alpha" maskUnits="userSpaceOnUse" x="0" y="0"
        width="17" height="20">
        <rect x="0.5" y="0.386719" width="16" height="19.2284" />
    </mask>
    <g mask="url(#mask0_3001_8036)">
        <path
            d="M3.54564 15.623C3.18585 15.623 2.87784 15.5055 2.62163 15.2705C2.36541 15.0355 2.2373 14.753 2.2373 14.423V6.02305C2.2373 5.69305 2.36541 5.41055 2.62163 5.17555C2.87784 4.94055 3.18585 4.82305 3.54564 4.82305H4.1998V3.62305H5.50814V4.82305H10.7415V3.62305H12.0498V4.82305H12.704C13.0638 4.82305 13.3718 4.94055 13.628 5.17555C13.8842 5.41055 14.0123 5.69305 14.0123 6.02305V14.423C14.0123 14.753 13.8842 15.0355 13.628 15.2705C13.3718 15.5055 13.0638 15.623 12.704 15.623H3.54564ZM3.54564 14.423H12.704V8.42305H3.54564V14.423ZM3.54564 7.22305H12.704V6.02305H3.54564V7.22305ZM8.1248 10.823C7.93946 10.823 7.78409 10.7655 7.65871 10.6505C7.53333 10.5355 7.47064 10.393 7.47064 10.223C7.47064 10.053 7.53333 9.91055 7.65871 9.79555C7.78409 9.68055 7.93946 9.62305 8.1248 9.62305C8.31015 9.62305 8.46552 9.68055 8.5909 9.79555C8.71628 9.91055 8.77897 10.053 8.77897 10.223C8.77897 10.393 8.71628 10.5355 8.5909 10.6505C8.46552 10.7655 8.31015 10.823 8.1248 10.823ZM5.50814 10.823C5.32279 10.823 5.16743 10.7655 5.04204 10.6505C4.91666 10.5355 4.85397 10.393 4.85397 10.223C4.85397 10.053 4.91666 9.91055 5.04204 9.79555C5.16743 9.68055 5.32279 9.62305 5.50814 9.62305C5.69349 9.62305 5.84885 9.68055 5.97423 9.79555C6.09961 9.91055 6.1623 10.053 6.1623 10.223C6.1623 10.393 6.09961 10.5355 5.97423 10.6505C5.84885 10.7655 5.69349 10.823 5.50814 10.823ZM10.7415 10.823C10.5561 10.823 10.4008 10.7655 10.2754 10.6505C10.15 10.5355 10.0873 10.393 10.0873 10.223C10.0873 10.053 10.15 9.91055 10.2754 9.79555C10.4008 9.68055 10.5561 9.62305 10.7415 9.62305C10.9268 9.62305 11.0822 9.68055 11.2076 9.79555C11.3329 9.91055 11.3956 10.053 11.3956 10.223C11.3956 10.393 11.3329 10.5355 11.2076 10.6505C11.0822 10.7655 10.9268 10.823 10.7415 10.823ZM8.1248 13.223C7.93946 13.223 7.78409 13.1655 7.65871 13.0505C7.53333 12.9355 7.47064 12.793 7.47064 12.623C7.47064 12.453 7.53333 12.3105 7.65871 12.1955C7.78409 12.0805 7.93946 12.023 8.1248 12.023C8.31015 12.023 8.46552 12.0805 8.5909 12.1955C8.71628 12.3105 8.77897 12.453 8.77897 12.623C8.77897 12.793 8.71628 12.9355 8.5909 13.0505C8.46552 13.1655 8.31015 13.223 8.1248 13.223ZM5.50814 13.223C5.32279 13.223 5.16743 13.1655 5.04204 13.0505C4.91666 12.9355 4.85397 12.793 4.85397 12.623C4.85397 12.453 4.91666 12.3105 5.04204 12.1955C5.16743 12.0805 5.32279 12.023 5.50814 12.023C5.69349 12.023 5.84885 12.0805 5.97423 12.1955C6.09961 12.3105 6.1623 12.453 6.1623 12.623C6.1623 12.793 6.09961 12.9355 5.97423 13.0505C5.84885 13.1655 5.69349 13.223 5.50814 13.223ZM10.7415 13.223C10.5561 13.223 10.4008 13.1655 10.2754 13.0505C10.15 12.9355 10.0873 12.793 10.0873 12.623C10.0873 12.453 10.15 12.3105 10.2754 12.1955C10.4008 12.0805 10.5561 12.023 10.7415 12.023C10.9268 12.023 11.0822 12.0805 11.2076 12.1955C11.3329 12.3105 11.3956 12.453 11.3956 12.623C11.3956 12.793 11.3329 12.9355 11.2076 13.0505C11.0822 13.1655 10.9268 13.223 10.7415 13.223Z"
            fill-opacity="0.6" />
    </g>
</svg>