<svg width="14" height="13" viewBox="0 0 14 13" fill="none" xmlns="http://www.w3.org/2000/svg">
<path d="M2.75578 9.83333H7.42244V8.5H2.75578V9.83333ZM9.42244 9.83333H10.7558V3.16667H9.42244V9.83333ZM2.75578 7.16667H7.42244V5.83333H2.75578V7.16667ZM2.75578 4.5H7.42244V3.16667H2.75578V4.5ZM1.42244 12.5C1.05578 12.5 0.741889 12.3694 0.480778 12.1083C0.219667 11.8472 0.0891113 11.5333 0.0891113 11.1667V1.83333C0.0891113 1.46667 0.219667 1.15278 0.480778 0.891667C0.741889 0.630556 1.05578 0.5 1.42244 0.5H12.0891C12.4558 0.5 12.7697 0.630556 13.0308 0.891667C13.2919 1.15278 13.4224 1.46667 13.4224 1.83333V11.1667C13.4224 11.5333 13.2919 11.8472 13.0308 12.1083C12.7697 12.3694 12.4558 12.5 12.0891 12.5H1.42244ZM1.42244 11.1667H12.0891V1.83333H1.42244V11.1667Z" fill="#333333" fill-opacity="0.6"/>
</svg>
