<svg width="20" height="21" viewBox="0 0 20 21" fill="none" xmlns="http://www.w3.org/2000/svg">
<path d="M10 0.5C4.48 0.5 0 4.98 0 10.5C0 16.02 4.48 20.5 10 20.5C15.52 20.5 20 16.02 20 10.5C20 4.98 15.52 0.5 10 0.5ZM14.5 14.5H6C4.34 14.5 3 13.16 3 11.5C3 9.84 4.34 8.5 6 8.5H6.14C6.58 6.77 8.13 5.5 10 5.5C12.21 5.5 14 7.29 14 9.5H14.5C15.163 9.5 15.7989 9.76339 16.2678 10.2322C16.7366 10.7011 17 11.337 17 12C17 12.663 16.7366 13.2989 16.2678 13.7678C15.7989 14.2366 15.163 14.5 14.5 14.5Z" fill="#333333" fill-opacity="0.87"/>
</svg>
