<svg width="16" height="17" viewBox="0 0 16 17" fill="none" xmlns="http://www.w3.org/2000/svg">
<mask id="mask0_4113_59061" style="mask-type:alpha" maskUnits="userSpaceOnUse" x="0" y="0" width="16" height="17">
<rect y="0.5" width="16" height="16" fill="#D9D9D9"/>
</mask>
<g mask="url(#mask0_4113_59061)">
<path d="M4.6665 14.5C4.29984 14.5 3.98595 14.3694 3.72484 14.1083C3.46373 13.8472 3.33317 13.5333 3.33317 13.1667V4.5H2.6665V3.16667H5.99984V2.5H9.99984V3.16667H13.3332V4.5H12.6665V13.1667C12.6665 13.5333 12.5359 13.8472 12.2748 14.1083C12.0137 14.3694 11.6998 14.5 11.3332 14.5H4.6665ZM11.3332 4.5H4.6665V13.1667H11.3332V4.5ZM5.99984 11.8333H7.33317V5.83333H5.99984V11.8333ZM8.6665 11.8333H9.99984V5.83333H8.6665V11.8333Z" fill="#333333" fill-opacity="0.6"/>
</g>
</svg>
