<svg width="16" height="18" viewBox="0 0 16 18" fill="none" xmlns="http://www.w3.org/2000/svg">
<mask id="mask0_396_1401" style="mask-type:alpha" maskUnits="userSpaceOnUse" x="0" y="0" width="16" height="18">
<rect y="0.267578" width="16" height="17.4257" fill="#D9D9D9"/>
</mask>
<g mask="url(#mask0_396_1401)">
<path d="M7.99967 16.2402C6.8219 16.2402 5.86079 16.0375 5.11634 15.6321C4.3719 15.2267 3.99967 14.7033 3.99967 14.062C3.99967 13.7716 4.08023 13.5023 4.24134 13.2542C4.40245 13.0062 4.62745 12.7914 4.91634 12.6098L5.96634 13.6808C5.86634 13.7292 5.75801 13.7837 5.64134 13.8442C5.52467 13.9047 5.43301 13.9773 5.36634 14.062C5.51079 14.2556 5.84412 14.425 6.36634 14.5702C6.88856 14.7155 7.43301 14.7881 7.99967 14.7881C8.56634 14.7881 9.11356 14.7155 9.64134 14.5702C10.1691 14.425 10.5052 14.2556 10.6497 14.062C10.5719 13.9652 10.4719 13.8865 10.3497 13.826C10.2275 13.7655 10.1108 13.7111 9.99967 13.6626L11.033 12.5735C11.3441 12.7672 11.583 12.988 11.7497 13.2361C11.9163 13.4842 11.9997 13.7595 11.9997 14.062C11.9997 14.7033 11.6275 15.2267 10.883 15.6321C10.1386 16.0375 9.17745 16.2402 7.99967 16.2402ZM8.01634 12.2468C9.11634 11.3634 9.94412 10.477 10.4997 9.58756C11.0552 8.69812 11.333 7.80566 11.333 6.91017C11.333 5.67585 10.9719 4.74405 10.2497 4.11479C9.52745 3.48553 8.77745 3.1709 7.99967 3.1709C7.2219 3.1709 6.4719 3.48553 5.74967 4.11479C5.02745 4.74405 4.66634 5.67585 4.66634 6.91017C4.66634 7.72095 4.93856 8.56501 5.48301 9.44235C6.02745 10.3197 6.8719 11.2545 8.01634 12.2468ZM7.99967 14.062C6.43301 12.8035 5.26356 11.5812 4.49134 10.3953C3.71912 9.2094 3.33301 8.04768 3.33301 6.91017C3.33301 6.05098 3.47467 5.29768 3.75801 4.65027C4.04134 4.00285 4.40523 3.46132 4.84967 3.02568C5.29412 2.59004 5.79412 2.2633 6.34967 2.04548C6.90523 1.82766 7.45523 1.71875 7.99967 1.71875C8.54412 1.71875 9.09412 1.82766 9.64967 2.04548C10.2052 2.2633 10.7052 2.59004 11.1497 3.02568C11.5941 3.46132 11.958 4.00285 12.2413 4.65027C12.5247 5.29768 12.6663 6.05098 12.6663 6.91017C12.6663 8.04768 12.2802 9.2094 11.508 10.3953C10.7358 11.5812 9.56634 12.8035 7.99967 14.062ZM7.99967 8.2534C8.36634 8.2534 8.68023 8.11122 8.94134 7.82684C9.20245 7.54246 9.33301 7.2006 9.33301 6.80126C9.33301 6.40192 9.20245 6.06006 8.94134 5.77568C8.68023 5.4913 8.36634 5.34911 7.99967 5.34911C7.63301 5.34911 7.31912 5.4913 7.05801 5.77568C6.7969 6.06006 6.66634 6.40192 6.66634 6.80126C6.66634 7.2006 6.7969 7.54246 7.05801 7.82684C7.31912 8.11122 7.63301 8.2534 7.99967 8.2534Z" fill="#333333" fill-opacity="0.87"/>
</g>
</svg>
