<svg width="12" height="12" viewBox="0 0 12 12" fill="none" xmlns="http://www.w3.org/2000/svg">
<path d="M6.66659 11.8334V10.0397L9.8895 6.83133C9.977 6.74383 10.0742 6.68064 10.1812 6.64175C10.2881 6.60286 10.3951 6.58341 10.502 6.58341C10.6187 6.58341 10.7305 6.60529 10.8374 6.64904C10.9444 6.69279 11.0416 6.75841 11.1291 6.84591L11.6687 7.3855C11.7464 7.473 11.8072 7.57022 11.851 7.67716C11.8947 7.78411 11.9166 7.89105 11.9166 7.998C11.9166 8.10494 11.8971 8.21432 11.8583 8.32612C11.8194 8.43793 11.7562 8.53758 11.6687 8.62508L8.46034 11.8334H6.66659ZM7.54159 10.9584H8.09575L9.86034 9.17925L9.59784 8.90216L9.32075 8.63966L7.54159 10.4042V10.9584ZM1.99992 11.8334C1.67909 11.8334 1.40443 11.7192 1.17596 11.4907C0.947488 11.2622 0.833252 10.9876 0.833252 10.6667V1.33341C0.833252 1.01258 0.947488 0.737929 1.17596 0.509456C1.40443 0.280984 1.67909 0.166748 1.99992 0.166748H6.66659L10.1666 3.66675V5.41675H8.99992V4.25008H6.08325V1.33341H1.99992V10.6667H5.49992V11.8334H1.99992ZM9.59784 8.90216L9.32075 8.63966L9.86034 9.17925L9.59784 8.90216Z" fill="#333333" fill-opacity="0.87"/>
</svg>
