<svg width="14" height="12" viewBox="0 0 14 12" fill="none" xmlns="http://www.w3.org/2000/svg">
<path d="M9.66658 12C9.29992 12 8.98603 11.8694 8.72492 11.6083C8.46381 11.3472 8.33325 11.0333 8.33325 10.6667V8C8.33325 7.63333 8.46381 7.31945 8.72492 7.05833C8.98603 6.79722 9.29992 6.66667 9.66658 6.66667H12.3333C12.6999 6.66667 13.0138 6.79722 13.2749 7.05833C13.536 7.31945 13.6666 7.63333 13.6666 8V10.6667C13.6666 11.0333 13.536 11.3472 13.2749 11.6083C13.0138 11.8694 12.6999 12 12.3333 12H9.66658ZM9.66658 10.6667H12.3333V8H9.66658V10.6667ZM0.333252 10V8.66667H6.33325V10H0.333252ZM9.66658 5.33333C9.29992 5.33333 8.98603 5.20278 8.72492 4.94167C8.46381 4.68056 8.33325 4.36667 8.33325 4V1.33333C8.33325 0.966667 8.46381 0.652778 8.72492 0.391667C8.98603 0.130556 9.29992 0 9.66658 0H12.3333C12.6999 0 13.0138 0.130556 13.2749 0.391667C13.536 0.652778 13.6666 0.966667 13.6666 1.33333V4C13.6666 4.36667 13.536 4.68056 13.2749 4.94167C13.0138 5.20278 12.6999 5.33333 12.3333 5.33333H9.66658ZM9.66658 4H12.3333V1.33333H9.66658V4ZM0.333252 3.33333V2H6.33325V3.33333H0.333252Z" fill="#333333" fill-opacity="0.6"/>
</svg>
