<svg width="17" height="20" viewBox="0 0 17 20" fill="none" xmlns="http://www.w3.org/2000/svg">
<mask id="mask0_3001_8029" style="mask-type:alpha" maskUnits="userSpaceOnUse" x="0" y="0" width="17" height="20">
<rect x="0.347168" y="0.386719" width="16.3057" height="19.2284" fill="#D9D9D9"/>
</mask>
<g mask="url(#mask0_3001_8029)">
<path d="M13.5956 17.2108C13.3125 17.2108 13.0719 17.0939 12.8737 16.8603C12.6756 16.6266 12.5765 16.3428 12.5765 16.009C12.5765 15.6752 12.6756 15.3914 12.8737 15.1577C13.0719 14.9241 13.3125 14.8072 13.5956 14.8072C13.8787 14.8072 14.1193 14.9241 14.3175 15.1577C14.5156 15.3914 14.6147 15.6752 14.6147 16.009C14.6147 16.3428 14.5156 16.6266 14.3175 16.8603C14.1193 17.0939 13.8787 17.2108 13.5956 17.2108ZM7.14125 18.012C6.00891 18.012 5.04642 17.8551 4.25378 17.5413C3.46114 17.2275 3.06482 16.8502 3.06482 16.4096C3.06482 16.1025 3.25166 15.8287 3.62533 15.5884C3.999 15.348 4.49157 15.1544 5.10304 15.0075V16.4096H6.46185V1.98828L11.8971 5.1129L7.82066 7.59657V14.8473C8.79447 14.914 9.6041 15.091 10.2495 15.3781C10.895 15.6652 11.2177 16.009 11.2177 16.4096C11.2177 16.8502 10.8214 17.2275 10.0287 17.5413C9.23609 17.8551 8.27359 18.012 7.14125 18.012Z" fill="#333333" fill-opacity="0.87"/>
</g>
</svg>
