<svg width="16" height="17" viewBox="0 0 16 17" fill="none" xmlns="http://www.w3.org/2000/svg">
<mask id="mask0_396_1190" style="mask-type:alpha" maskUnits="userSpaceOnUse" x="0" y="0" width="16" height="17">
<rect y="0.267578" width="16" height="16" fill="#D9D9D9"/>
</mask>
<g mask="url(#mask0_396_1190)">
<path d="M12.8049 14.5276C12.5387 14.5276 12.3125 14.4261 12.1262 14.2232C11.9398 14.0203 11.8467 13.7739 11.8467 13.484C11.8467 13.1941 11.9398 12.9477 12.1262 12.7448C12.3125 12.5418 12.5387 12.4404 12.8049 12.4404C13.0711 12.4404 13.2973 12.5418 13.4836 12.7448C13.67 12.9477 13.7631 13.1941 13.7631 13.484C13.7631 13.7739 13.67 14.0203 13.4836 14.2232C13.2973 14.4261 13.0711 14.5276 12.8049 14.5276ZM6.73619 15.2233C5.67151 15.2233 4.76652 15.0871 4.02124 14.8146C3.27596 14.5421 2.90332 14.2145 2.90332 13.8318C2.90332 13.5651 3.07899 13.3274 3.43034 13.1187C3.78169 12.91 4.24483 12.7419 4.81976 12.6143V13.8318H6.09738V1.30859L11.2079 4.02196L7.375 6.17874V12.4752C8.29063 12.5331 9.05189 12.6868 9.65876 12.9361C10.2656 13.1854 10.5691 13.484 10.5691 13.8318C10.5691 14.2145 10.1964 14.5421 9.45114 14.8146C8.70586 15.0871 7.80088 15.2233 6.73619 15.2233Z" fill="#333333" fill-opacity="0.87"/>
</g>
</svg>
