<svg width="50" height="51" viewBox="0 0 50 51" fill="none" xmlns="http://www.w3.org/2000/svg">
<rect y="0.5" width="50" height="50" rx="10" fill="#F5F5F5"/>
<mask id="mask0_4420_16808" style="mask-type:alpha" maskUnits="userSpaceOnUse" x="17" y="17" width="16" height="17">
<rect x="17" y="17.5" width="16" height="16" fill="#D9D9D9"/>
</mask>
<g mask="url(#mask0_4420_16808)">
<path d="M28.1335 27.1654L30.6668 24.9987L32.6668 25.1654L29.7335 27.7154L30.6002 31.4987L28.9002 30.4654L28.1335 27.1654ZM26.5668 22.2987L25.8668 20.6654L26.6335 18.832L28.1668 22.4487L26.5668 22.2987ZM21.9002 28.7154L24.0002 27.4487L26.1002 28.732L25.5502 26.332L27.4002 24.732L24.9668 24.5154L24.0002 22.2487L23.0335 24.4987L20.6002 24.7154L22.4502 26.332L21.9002 28.7154ZM19.8835 31.4987L20.9668 26.8154L17.3335 23.6654L22.1335 23.2487L24.0002 18.832L25.8668 23.2487L30.6668 23.6654L27.0335 26.8154L28.1168 31.4987L24.0002 29.0154L19.8835 31.4987Z" fill="#333333" fill-opacity="0.87"/>
</g>
</svg>
