<svg width="16" height="17" viewBox="0 0 16 17" fill="none" xmlns="http://www.w3.org/2000/svg">
<path d="M6.00017 6.50164V13.835H10.6668V11.835C10.6668 11.6461 10.7308 11.4879 10.8588 11.3603C10.9868 11.2327 11.1451 11.1687 11.3335 11.1683H13.3335V6.50164H6.00017ZM4.66684 13.835V6.48497C4.66684 6.1183 4.80017 5.80719 5.06684 5.55164C5.33351 5.29608 5.65017 5.1683 6.01684 5.1683H13.3335C13.7002 5.1683 14.0142 5.29875 14.2755 5.55964C14.5368 5.82052 14.6673 6.13452 14.6668 6.50164V11.285C14.6668 11.4627 14.6335 11.6323 14.5668 11.7936C14.5002 11.955 14.4057 12.0965 14.2835 12.2183L11.7168 14.785C11.5946 14.9072 11.4528 15.0016 11.2915 15.0683C11.1302 15.135 10.9608 15.1683 10.7835 15.1683H6.00017C5.63351 15.1683 5.31973 15.0379 5.05884 14.777C4.79795 14.5161 4.66728 14.2021 4.66684 13.835ZM1.35017 4.6683C1.28351 4.30164 1.35573 3.97119 1.56684 3.67697C1.77795 3.38275 2.06684 3.20208 2.43351 3.13497L9.66684 1.85164C10.0224 1.78497 10.3446 1.86008 10.6335 2.07697C10.9224 2.29386 11.1113 2.57986 11.2002 2.93497L11.3168 3.45164C11.3724 3.67386 11.3391 3.85164 11.2168 3.98497C11.0946 4.1183 10.9502 4.19608 10.7835 4.2183C10.6168 4.24052 10.4586 4.21008 10.3088 4.12697C10.1591 4.04386 10.0562 3.89097 10.0002 3.6683L9.8835 3.1683L2.66684 4.45164L3.66684 10.185C3.70017 10.3739 3.66684 10.5432 3.56684 10.693C3.46684 10.8427 3.32239 10.9345 3.13351 10.9683C2.94462 11.0021 2.77795 10.9661 2.63351 10.8603C2.48906 10.7545 2.40017 10.6072 2.36684 10.4183L1.35017 4.6683Z" fill="#818181"/>
</svg>
