<svg width="16" height="13" viewBox="0 0 16 13" fill="none" xmlns="http://www.w3.org/2000/svg">
<path d="M11.134 8.66927L13.6673 6.5026L15.6673 6.66927L12.734 9.21927L13.6006 13.0026L11.9007 11.9693L11.134 8.66927ZM9.56732 3.8026L8.86732 2.16927L9.63398 0.335938L11.1673 3.9526L9.56732 3.8026ZM4.90065 10.2193L7.00065 8.9526L9.10065 10.2359L8.55065 7.83594L10.4007 6.23594L7.96732 6.01927L7.00065 3.7526L6.03398 6.0026L3.60065 6.21927L5.45065 7.83594L4.90065 10.2193ZM2.88398 13.0026L3.96732 8.31927L0.333984 5.16927L5.13398 4.7526L7.00065 0.335938L8.86732 4.7526L13.6673 5.16927L10.034 8.31927L11.1173 13.0026L7.00065 10.5193L2.88398 13.0026Z" fill="#333333" fill-opacity="0.6"/>
</svg>
