<svg width="9" height="9" viewBox="0 0 9 9" fill="none" xmlns="http://www.w3.org/2000/svg">
<path d="M1.16683 2.00016H0.333496V7.8335C0.333496 8.29183 0.708496 8.66683 1.16683 8.66683H7.00016V7.8335H1.16683V2.00016ZM7.8335 0.333496H2.8335C2.37516 0.333496 2.00016 0.708496 2.00016 1.16683V6.16683C2.00016 6.62516 2.37516 7.00016 2.8335 7.00016H7.8335C8.29183 7.00016 8.66683 6.62516 8.66683 6.16683V1.16683C8.66683 0.708496 8.29183 0.333496 7.8335 0.333496ZM7.41683 4.0835H3.25016V3.25016H7.41683V4.0835ZM5.75016 5.75016H3.25016V4.91683H5.75016V5.75016ZM7.41683 2.41683H3.25016V1.5835H7.41683V2.41683Z" fill="#333333" fill-opacity="0.87"/>
</svg>
