<svg width="16" height="18" viewBox="0 0 16 18" fill="none" xmlns="http://www.w3.org/2000/svg">
<mask id="mask0_396_1449" style="mask-type:alpha" maskUnits="userSpaceOnUse" x="0" y="0" width="16" height="18">
<rect y="0.267578" width="16" height="17.4257" fill="#D9D9D9"/>
</mask>
<g mask="url(#mask0_396_1449)">
<path d="M2.66634 14.789C2.29967 14.789 1.98579 14.6468 1.72467 14.3625C1.46356 14.0781 1.33301 13.7362 1.33301 13.3369V4.62402C1.33301 4.22468 1.46356 3.88282 1.72467 3.59844C1.98579 3.31406 2.29967 3.17188 2.66634 3.17188H13.333C13.6997 3.17188 14.0136 3.31406 14.2747 3.59844C14.5358 3.88282 14.6663 4.22468 14.6663 4.62402V13.3369C14.6663 13.7362 14.5358 14.0781 14.2747 14.3625C14.0136 14.6468 13.6997 14.789 13.333 14.789H2.66634ZM7.99967 9.70653L2.66634 6.07617V13.3369H13.333V6.07617L7.99967 9.70653ZM7.99967 8.25438L13.333 4.62402H2.66634L7.99967 8.25438ZM2.66634 6.07617V4.62402V13.3369V6.07617Z" fill="#333333" fill-opacity="0.87"/>
</g>
</svg>
