<svg width="14" height="19" viewBox="0 0 14 19" fill="none" xmlns="http://www.w3.org/2000/svg">
<path d="M7 12C6.16667 12 5.45833 11.7083 4.875 11.125C4.29167 10.5417 4 9.83333 4 9V3C4 2.16667 4.29167 1.45833 4.875 0.875C5.45833 0.291667 6.16667 0 7 0C7.83333 0 8.54167 0.291667 9.125 0.875C9.70833 1.45833 10 2.16667 10 3V9C10 9.83333 9.70833 10.5417 9.125 11.125C8.54167 11.7083 7.83333 12 7 12ZM6 19V15.925C4.26667 15.6917 2.83333 14.9167 1.7 13.6C0.566666 12.2833 0 10.75 0 9H2C2 10.3833 2.48767 11.5627 3.463 12.538C4.43833 13.5133 5.61733 14.0007 7 14C8.38267 13.9993 9.562 13.5117 10.538 12.537C11.514 11.5623 12.0013 10.3833 12 9H14C14 10.75 13.4333 12.2833 12.3 13.6C11.1667 14.9167 9.73333 15.6917 8 15.925V19H6ZM7 10C7.28333 10 7.521 9.904 7.713 9.712C7.905 9.52 8.00067 9.28267 8 9V3C8 2.71667 7.904 2.47933 7.712 2.288C7.52 2.09667 7.28267 2.00067 7 2C6.71733 1.99933 6.48 2.09533 6.288 2.288C6.096 2.48067 6 2.718 6 3V9C6 9.28333 6.096 9.521 6.288 9.713C6.48 9.905 6.71733 10.0007 7 10Z" fill="#333333" fill-opacity="0.87"/>
</svg>
