<svg width="21" height="21" viewBox="0 0 21 21" fill="none" xmlns="http://www.w3.org/2000/svg">
<path d="M0.375 16.4051V20.6238H4.59375L17.0362 8.18134L12.8175 3.96259L0.375 16.4051ZM20.2987 4.91884C20.403 4.81477 20.4858 4.69114 20.5422 4.55505C20.5987 4.41895 20.6277 4.27306 20.6277 4.12572C20.6277 3.97838 20.5987 3.83249 20.5422 3.69639C20.4858 3.5603 20.403 3.43667 20.2987 3.33259L17.6663 0.700093C17.5622 0.595802 17.4385 0.513061 17.3025 0.456607C17.1664 0.400152 17.0205 0.371094 16.8731 0.371094C16.7258 0.371094 16.5799 0.400152 16.4438 0.456607C16.3077 0.513061 16.1841 0.595802 16.08 0.700093L14.0212 2.75884L18.24 6.97759L20.2987 4.91884Z" fill="#364699"/>
</svg>
