<svg width="56" height="57" viewBox="0 0 56 57" fill="none" xmlns="http://www.w3.org/2000/svg">
<path d="M27.9998 5.16406C15.1198 5.16406 4.6665 15.6174 4.6665 28.4974C4.6665 41.3774 15.1198 51.8307 27.9998 51.8307C40.8798 51.8307 51.3332 41.3774 51.3332 28.4974C51.3332 15.6174 40.8798 5.16406 27.9998 5.16406ZM27.9998 47.1641C17.7098 47.1641 9.33317 38.7874 9.33317 28.4974C9.33317 18.2074 17.7098 9.83073 27.9998 9.83073C38.2898 9.83073 46.6665 18.2074 46.6665 28.4974C46.6665 38.7874 38.2898 47.1641 27.9998 47.1641ZM22.1665 38.9974L38.4998 28.4974L22.1665 17.9974V38.9974Z" fill="#333333" fill-opacity="0.6"/>
</svg>
