<svg width="20" height="19" viewBox="0 0 20 19" fill="none" xmlns="http://www.w3.org/2000/svg">
<path d="M18.0003 10.8307H11.3337V17.4974C11.3337 17.851 11.1932 18.1902 10.9431 18.4402C10.6931 18.6903 10.3539 18.8307 10.0003 18.8307C9.6467 18.8307 9.30756 18.6903 9.05752 18.4402C8.80747 18.1902 8.66699 17.851 8.66699 17.4974V10.8307H2.00033C1.6467 10.8307 1.30757 10.6903 1.05752 10.4402C0.807468 10.1902 0.666992 9.85102 0.666992 9.4974C0.666992 9.14377 0.807468 8.80464 1.05752 8.55459C1.30757 8.30454 1.6467 8.16406 2.00033 8.16406H8.66699V1.4974C8.66699 1.14377 8.80747 0.804635 9.05752 0.554586C9.30756 0.304538 9.6467 0.164062 10.0003 0.164062C10.3539 0.164062 10.6931 0.304538 10.9431 0.554586C11.1932 0.804635 11.3337 1.14377 11.3337 1.4974V8.16406H18.0003C18.3539 8.16406 18.6931 8.30454 18.9431 8.55459C19.1932 8.80464 19.3337 9.14377 19.3337 9.4974C19.3337 9.85102 19.1932 10.1902 18.9431 10.4402C18.6931 10.6903 18.3539 10.8307 18.0003 10.8307Z" fill="#D9D9D9"/>
</svg>
