<svg width="12" height="15" viewBox="0 0 12 15" fill="none" xmlns="http://www.w3.org/2000/svg">
<path d="M2 14.1666C1.44444 14.1666 0.972222 13.9721 0.583333 13.5833C0.194444 13.1944 0 12.7221 0 12.1666V10.1666H2V0.833252H12V12.1666C12 12.7221 11.8056 13.1944 11.4167 13.5833C11.0278 13.9721 10.5556 14.1666 10 14.1666H2ZM10 12.8333C10.1889 12.8333 10.3472 12.7694 10.475 12.6416C10.6028 12.5138 10.6667 12.3555 10.6667 12.1666V2.16659H3.33333V10.1666H9.33333V12.1666C9.33333 12.3555 9.39722 12.5138 9.525 12.6416C9.65278 12.7694 9.81111 12.8333 10 12.8333ZM4 5.49992V4.16658H10V5.49992H4ZM4 7.49992V6.16658H10V7.49992H4ZM2 12.8333H8V11.4999H1.33333V12.1666C1.33333 12.3555 1.39722 12.5138 1.525 12.6416C1.65278 12.7694 1.81111 12.8333 2 12.8333ZM2 12.8333H1.33333H8H2Z" fill="#333333" fill-opacity="0.87"/>
</svg>
