<svg width="17" height="16" viewBox="0 0 17 16" fill="none" xmlns="http://www.w3.org/2000/svg">
<mask id="mask0_3001_8043" style="mask-type:alpha" maskUnits="userSpaceOnUse" x="0" y="0" width="17" height="16">
<rect x="0.5" width="16" height="16" fill="#D9D9D9"/>
</mask>
<g mask="url(#mask0_3001_8043)">
<path d="M10.608 11.2703L11.5024 10.2963L9.13875 7.72203V4.52165H7.86112V8.27862L10.608 11.2703ZM8.49994 14.9577C7.61625 14.9577 6.78579 14.7751 6.00857 14.4098C5.23135 14.0445 4.55527 13.5488 3.98034 12.9227C3.40541 12.2965 2.95026 11.5602 2.61488 10.7137C2.2795 9.86722 2.11182 8.96276 2.11182 8.00033C2.11182 7.03789 2.2795 6.13344 2.61488 5.28696C2.95026 4.44048 3.40541 3.70416 3.98034 3.078C4.55527 2.45183 5.23135 1.95612 6.00857 1.59086C6.78579 1.2256 7.61625 1.04297 8.49994 1.04297C9.38363 1.04297 10.2141 1.2256 10.9913 1.59086C11.7685 1.95612 12.4446 2.45183 13.0195 3.078C13.5945 3.70416 14.0496 4.44048 14.385 5.28696C14.7204 6.13344 14.8881 7.03789 14.8881 8.00033C14.8881 8.96276 14.7204 9.86722 14.385 10.7137C14.0496 11.5602 13.5945 12.2965 13.0195 12.9227C12.4446 13.5488 11.7685 14.0445 10.9913 14.4098C10.2141 14.7751 9.38363 14.9577 8.49994 14.9577ZM8.49994 13.5662C9.91597 13.5662 11.1217 13.0241 12.1172 11.9399C13.1127 10.8557 13.6104 9.54254 13.6104 8.00033C13.6104 6.45811 13.1127 5.14491 12.1172 4.06072C11.1217 2.97653 9.91597 2.43444 8.49994 2.43444C7.0839 2.43444 5.87815 2.97653 4.88266 4.06072C3.88718 5.14491 3.38944 6.45811 3.38944 8.00033C3.38944 9.54254 3.88718 10.8557 4.88266 11.9399C5.87815 13.0241 7.0839 13.5662 8.49994 13.5662Z" fill="#333333" fill-opacity="0.6"/>
</g>
</svg>
