<svg width="25" height="24" viewBox="0 0 25 24" fill="none" xmlns="http://www.w3.org/2000/svg">
<path d="M15.35 4.85001L16.79 6.29001L13.91 9.17001L15.33 10.59L18.21 7.71001L19.65 9.15001C19.7205 9.21911 19.8099 9.2658 19.9069 9.28419C20.0038 9.30258 20.1041 9.29185 20.195 9.25335C20.2859 9.21486 20.3634 9.15031 20.4177 9.06786C20.4719 8.9854 20.5006 8.88872 20.5 8.79001V4.50001C20.5 4.22001 20.28 4.00001 20 4.00001H15.71C15.6113 3.99943 15.5146 4.02808 15.4322 4.08236C15.3497 4.13663 15.2852 4.2141 15.2467 4.305C15.2082 4.3959 15.1974 4.49616 15.2158 4.59315C15.2342 4.69014 15.2809 4.77951 15.35 4.85001ZM9.29 4.00001H5C4.72 4.00001 4.5 4.22001 4.5 4.50001V8.79001C4.5 9.24001 5.04 9.46001 5.35 9.14001L6.79 7.70001L11.5 12.4V19C11.5 19.55 11.95 20 12.5 20C13.05 20 13.5 19.55 13.5 19V12C13.5 11.74 13.39 11.48 13.21 11.29L8.21 6.28001L9.65 4.84001C9.96 4.54001 9.74 4.00001 9.29 4.00001Z" fill="#333333" fill-opacity="0.87"/>
</svg>
