<svg width="17" height="16" viewBox="0 0 17 16" fill="none" xmlns="http://www.w3.org/2000/svg">
<path fill-rule="evenodd" clip-rule="evenodd" d="M11.6133 8.75342C12.5266 9.37342 13.1666 10.2134 13.1666 11.3334V13.3334H15.1666C15.5333 13.3334 15.8333 13.0334 15.8333 12.6668V11.3334C15.8333 9.88008 13.4533 9.02008 11.6133 8.75342Z" fill="white"/>
<path d="M6.49992 8.00008C7.97268 8.00008 9.16659 6.80617 9.16659 5.33341C9.16659 3.86066 7.97268 2.66675 6.49992 2.66675C5.02716 2.66675 3.83325 3.86066 3.83325 5.33341C3.83325 6.80617 5.02716 8.00008 6.49992 8.00008Z" fill="white"/>
<path fill-rule="evenodd" clip-rule="evenodd" d="M10.5001 8.00008C11.9734 8.00008 13.1667 6.80675 13.1667 5.33341C13.1667 3.86008 11.9734 2.66675 10.5001 2.66675C10.1867 2.66675 9.89342 2.73341 9.61341 2.82675C10.1871 3.53623 10.5001 4.42102 10.5001 5.33341C10.5001 6.24581 10.1871 7.1306 9.61341 7.84008C9.89342 7.93341 10.1867 8.00008 10.5001 8.00008ZM6.50008 8.66675C4.72008 8.66675 1.16675 9.56008 1.16675 11.3334V12.6667C1.16675 13.0334 1.46675 13.3334 1.83341 13.3334H11.1667C11.5334 13.3334 11.8334 13.0334 11.8334 12.6667V11.3334C11.8334 9.56008 8.28008 8.66675 6.50008 8.66675Z" fill="white"/>
</svg>
