<svg width="17" height="16" viewBox="0 0 17 16" fill="none" xmlns="http://www.w3.org/2000/svg">
<path fill-rule="evenodd" clip-rule="evenodd" d="M11.6133 8.75342C12.5266 9.37342 13.1666 10.2134 13.1666 11.3334V13.3334H15.1666C15.5333 13.3334 15.8333 13.0334 15.8333 12.6668V11.3334C15.8333 9.88008 13.4533 9.02008 11.6133 8.75342Z" fill="#333333" fill-opacity="0.87"/>
<path d="M6.49967 8.00008C7.97243 8.00008 9.16634 6.80617 9.16634 5.33341C9.16634 3.86066 7.97243 2.66675 6.49967 2.66675C5.02692 2.66675 3.83301 3.86066 3.83301 5.33341C3.83301 6.80617 5.02692 8.00008 6.49967 8.00008Z" fill="#333333" fill-opacity="0.87"/>
<path fill-rule="evenodd" clip-rule="evenodd" d="M10.5003 8.00008C11.9737 8.00008 13.167 6.80675 13.167 5.33341C13.167 3.86008 11.9737 2.66675 10.5003 2.66675C10.187 2.66675 9.89366 2.73341 9.61366 2.82675C10.1873 3.53623 10.5003 4.42102 10.5003 5.33341C10.5003 6.24581 10.1873 7.1306 9.61366 7.84008C9.89366 7.93341 10.187 8.00008 10.5003 8.00008ZM6.50033 8.66675C4.72033 8.66675 1.16699 9.56008 1.16699 11.3334V12.6667C1.16699 13.0334 1.46699 13.3334 1.83366 13.3334H11.167C11.5337 13.3334 11.8337 13.0334 11.8337 12.6667V11.3334C11.8337 9.56008 8.28033 8.66675 6.50033 8.66675Z" fill="#333333" fill-opacity="0.87"/>
</svg>
