<svg width="17" height="16" viewBox="0 0 17 16" fill="none" xmlns="http://www.w3.org/2000/svg">
<mask id="mask0_3001_8050" style="mask-type:alpha" maskUnits="userSpaceOnUse" x="0" y="0" width="17" height="16">
<rect x="0.5" width="16" height="16" fill="#D9D9D9"/>
</mask>
<g mask="url(#mask0_3001_8050)">
<path d="M6.66672 14.6673L6.40005 12.534C6.2556 12.4784 6.11949 12.4118 5.99172 12.334C5.86394 12.2562 5.73894 12.1729 5.61672 12.084L3.63338 12.9173L1.80005 9.75065L3.51672 8.45065C3.5056 8.37287 3.50005 8.29787 3.50005 8.22565V7.77565C3.50005 7.70343 3.5056 7.62843 3.51672 7.55065L1.80005 6.25065L3.63338 3.08398L5.61672 3.91732C5.73894 3.82843 5.86672 3.7451 6.00005 3.66732C6.13338 3.58954 6.26672 3.52287 6.40005 3.46732L6.66672 1.33398H10.3334L10.6 3.46732C10.7445 3.52287 10.8806 3.58954 11.0084 3.66732C11.1362 3.7451 11.2612 3.82843 11.3834 3.91732L13.3667 3.08398L15.2 6.25065L13.4834 7.55065C13.4945 7.62843 13.5 7.70343 13.5 7.77565V8.22565C13.5 8.29787 13.4889 8.37287 13.4667 8.45065L15.1834 9.75065L13.35 12.9173L11.3834 12.084C11.2612 12.1729 11.1334 12.2562 11 12.334C10.8667 12.4118 10.7334 12.4784 10.6 12.534L10.3334 14.6673H6.66672ZM7.83338 13.334H9.15005L9.38338 11.5673C9.72783 11.4784 10.0473 11.3479 10.3417 11.1757C10.6362 11.0034 10.9056 10.7951 11.15 10.5507L12.8 11.234L13.45 10.1007L12.0167 9.01732C12.0723 8.86176 12.1112 8.69787 12.1334 8.52565C12.1556 8.35343 12.1667 8.17843 12.1667 8.00065C12.1667 7.82287 12.1556 7.64787 12.1334 7.47565C12.1112 7.30343 12.0723 7.13954 12.0167 6.98398L13.45 5.90065L12.8 4.76732L11.15 5.46732C10.9056 5.21176 10.6362 4.99787 10.3417 4.82565C10.0473 4.65343 9.72783 4.52287 9.38338 4.43398L9.16672 2.66732H7.85005L7.61672 4.43398C7.27227 4.52287 6.95283 4.65343 6.65838 4.82565C6.36394 4.99787 6.09449 5.20621 5.85005 5.45065L4.20005 4.76732L3.55005 5.90065L4.98338 6.96732C4.92783 7.13398 4.88894 7.30065 4.86672 7.46732C4.84449 7.63398 4.83338 7.81176 4.83338 8.00065C4.83338 8.17843 4.84449 8.35065 4.86672 8.51732C4.88894 8.68398 4.92783 8.85065 4.98338 9.01732L3.55005 10.1007L4.20005 11.234L5.85005 10.534C6.09449 10.7895 6.36394 11.0034 6.65838 11.1757C6.95283 11.3479 7.27227 11.4784 7.61672 11.5673L7.83338 13.334ZM8.53338 10.334C9.17783 10.334 9.72783 10.1062 10.1834 9.65065C10.6389 9.1951 10.8667 8.64509 10.8667 8.00065C10.8667 7.35621 10.6389 6.80621 10.1834 6.35065C9.72783 5.8951 9.17783 5.66732 8.53338 5.66732C7.87783 5.66732 7.32505 5.8951 6.87505 6.35065C6.42505 6.80621 6.20005 7.35621 6.20005 8.00065C6.20005 8.64509 6.42505 9.1951 6.87505 9.65065C7.32505 10.1062 7.87783 10.334 8.53338 10.334Z" fill="#333333" fill-opacity="0.6"/>
</g>
</svg>
