<svg width="16" height="18" viewBox="0 0 16 18" fill="none" xmlns="http://www.w3.org/2000/svg">
<mask id="mask0_396_1202" style="mask-type:alpha" maskUnits="userSpaceOnUse" x="0" y="0" width="16" height="18">
<rect y="0.267578" width="16" height="17.4257" fill="#D9D9D9"/>
</mask>
<g mask="url(#mask0_396_1202)">
<path d="M5.99967 4.62402H7.33301V3.17188H5.99967V4.62402ZM8.66634 4.62402V3.17188H9.99967V4.62402H8.66634ZM5.99967 10.4326V8.98046H7.33301V10.4326H5.99967ZM11.333 7.52831V6.07617H12.6663V7.52831H11.333ZM11.333 10.4326V8.98046H12.6663V10.4326H11.333ZM8.66634 10.4326V8.98046H9.99967V10.4326H8.66634ZM11.333 4.62402V3.17188H12.6663V4.62402H11.333ZM7.33301 6.07617V4.62402H8.66634V6.07617H7.33301ZM3.33301 14.789V3.17188H4.66634V4.62402H5.99967V6.07617H4.66634V7.52831H5.99967V8.98046H4.66634V14.789H3.33301ZM9.99967 8.98046V7.52831H11.333V8.98046H9.99967ZM7.33301 8.98046V7.52831H8.66634V8.98046H7.33301ZM5.99967 7.52831V6.07617H7.33301V7.52831H5.99967ZM8.66634 7.52831V6.07617H9.99967V7.52831H8.66634ZM9.99967 6.07617V4.62402H11.333V6.07617H9.99967Z" fill="#333333" fill-opacity="0.87"/>
</g>
</svg>
