<svg width="16" height="16" viewBox="0 0 16 16" fill="none" xmlns="http://www.w3.org/2000/svg">
<mask id="mask0_267_2941" style="mask-type:alpha" maskUnits="userSpaceOnUse" x="0" y="0" width="16" height="16">
<rect width="16" height="16" fill="#D9D9D9"/>
</mask>
<g mask="url(#mask0_267_2941)">
<path d="M11.1335 9.66732L13.6668 7.50065L15.6668 7.66732L12.7335 10.2173L13.6002 14.0007L11.9002 12.9673L11.1335 9.66732ZM9.56683 4.80065L8.86683 3.16732L9.6335 1.33398L11.1668 4.95065L9.56683 4.80065ZM4.90016 11.2173L7.00016 9.95065L9.10016 11.234L8.55016 8.83398L10.4002 7.23398L7.96683 7.01732L7.00016 4.75065L6.0335 7.00065L3.60016 7.21732L5.45016 8.83398L4.90016 11.2173ZM2.8835 14.0007L3.96683 9.31732L0.333496 6.16732L5.1335 5.75065L7.00016 1.33398L8.86683 5.75065L13.6668 6.16732L10.0335 9.31732L11.1168 14.0007L7.00016 11.5173L2.8835 14.0007Z" fill="#333333" fill-opacity="0.87"/>
</g>
</svg>
