<svg width="17" height="16" viewBox="0 0 17 16" fill="none" xmlns="http://www.w3.org/2000/svg">
<path d="M15.5469 7.19289V13.9724C15.5469 14.4414 15.3936 14.8429 15.0869 15.1769C14.7803 15.5109 14.4116 15.6779 13.9809 15.6779H3.01903C2.58839 15.6779 2.21973 15.5109 1.91306 15.1769C1.60638 14.8429 1.45305 14.4414 1.45305 13.9724V7.19289C1.1529 6.89442 0.921264 6.51067 0.75814 6.04165C0.595017 5.57263 0.591754 5.06097 0.748353 4.50668L1.5705 1.60727C1.6749 1.23774 1.86086 0.932167 2.12838 0.69055C2.3959 0.448933 2.70584 0.328125 3.05818 0.328125H13.9418C14.2941 0.328125 14.6008 0.44538 14.8618 0.679891C15.1228 0.914401 15.312 1.22353 15.4295 1.60727L16.2516 4.50668C16.4082 5.06097 16.405 5.56553 16.2418 6.02033C16.0787 6.47514 15.8471 6.86599 15.5469 7.19289ZM10.2226 6.29748C10.5749 6.29748 10.8424 6.16602 11.0251 5.90308C11.2078 5.64014 11.2796 5.34523 11.2405 5.01834L10.8098 2.03366H9.28298V5.18889C9.28298 5.48736 9.37433 5.74674 9.55703 5.96704C9.73973 6.18734 9.96158 6.29748 10.2226 6.29748ZM6.69911 6.29748C6.99925 6.29748 7.24394 6.18734 7.43316 5.96704C7.62239 5.74674 7.717 5.48736 7.717 5.18889V2.03366H6.19016L5.75951 5.01834C5.70731 5.35944 5.77583 5.65791 5.96505 5.91374C6.15427 6.16957 6.39896 6.29748 6.69911 6.29748ZM3.21478 6.29748C3.44968 6.29748 3.65522 6.2051 3.83139 6.02033C4.00756 5.83557 4.11523 5.60106 4.15438 5.3168L4.58502 2.03366H3.05818L2.27519 4.89042C2.19689 5.17468 2.2393 5.48025 2.40243 5.80714C2.56555 6.13404 2.83634 6.29748 3.21478 6.29748ZM13.7852 6.29748C14.1636 6.29748 14.4377 6.13404 14.6073 5.80714C14.777 5.48025 14.8161 5.17468 14.7248 4.89042L13.9026 2.03366H12.415L12.8456 5.3168C12.8848 5.60106 12.9924 5.83557 13.1686 6.02033C13.3448 6.2051 13.5503 6.29748 13.7852 6.29748ZM3.01903 13.9724H13.9809V7.96038C13.9157 7.9888 13.8733 8.00301 13.8537 8.00301H13.7852C13.4329 8.00301 13.1229 7.93906 12.8554 7.81114C12.5879 7.68323 12.3236 7.47714 12.0626 7.19289C11.8277 7.44872 11.5602 7.6477 11.26 7.78982C10.9599 7.93195 10.6402 8.00301 10.3009 8.00301C9.94853 8.00301 9.61902 7.93195 9.31235 7.78982C9.00567 7.6477 8.73489 7.44872 8.49999 7.19289C8.27814 7.44872 8.02041 7.6477 7.72679 7.78982C7.43316 7.93195 7.1167 8.00301 6.7774 8.00301C6.39896 8.00301 6.0564 7.93195 5.74973 7.78982C5.44305 7.6477 5.17227 7.44872 4.93737 7.19289C4.66332 7.49136 4.39254 7.70099 4.12501 7.8218C3.85749 7.94261 3.55408 8.00301 3.21478 8.00301H3.1267C3.09407 8.00301 3.05818 7.9888 3.01903 7.96038V13.9724Z" fill="#333333" fill-opacity="0.6"/>
</svg>
