<svg width="14" height="12" viewBox="0 0 14 12" fill="none" xmlns="http://www.w3.org/2000/svg">
<path d="M1.66683 11.3334C1.30016 11.3334 0.986274 11.2029 0.725163 10.9417C0.464052 10.6806 0.333496 10.3667 0.333496 10.0001V2.00008C0.333496 1.63341 0.464052 1.31953 0.725163 1.05841C0.986274 0.797304 1.30016 0.666748 1.66683 0.666748H5.00016V2.00008H1.66683V10.0001H12.3335V2.00008H9.00016V0.666748H12.3335C12.7002 0.666748 13.0141 0.797304 13.2752 1.05841C13.5363 1.31953 13.6668 1.63341 13.6668 2.00008V10.0001C13.6668 10.3667 13.5363 10.6806 13.2752 10.9417C13.0141 11.2029 12.7002 11.3334 12.3335 11.3334H1.66683ZM7.00016 8.26675L3.66683 4.93341L4.60016 4.00008L6.3335 5.73341V0.666748H7.66683V5.73341L9.40016 4.00008L10.3335 4.93341L7.00016 8.26675Z" fill="#333333" fill-opacity="0.6"/>
</svg>
