<svg width="14" height="12" viewBox="0 0 14 12" fill="none" xmlns="http://www.w3.org/2000/svg">
<path d="M1.66634 11.3346C1.29967 11.3346 0.985786 11.2041 0.724674 10.943C0.463563 10.6819 0.333008 10.368 0.333008 10.0013V2.0013C0.333008 1.63464 0.463563 1.32075 0.724674 1.05964C0.985786 0.798524 1.29967 0.667969 1.66634 0.667969H4.99967V2.0013H1.66634V10.0013H12.333V2.0013H8.99967V0.667969H12.333C12.6997 0.667969 13.0136 0.798524 13.2747 1.05964C13.5358 1.32075 13.6663 1.63464 13.6663 2.0013V10.0013C13.6663 10.368 13.5358 10.6819 13.2747 10.943C13.0136 11.2041 12.6997 11.3346 12.333 11.3346H1.66634ZM6.99967 8.26797L3.66634 4.93464L4.59967 4.0013L6.33301 5.73464V0.667969H7.66634V5.73464L9.39967 4.0013L10.333 4.93464L6.99967 8.26797Z" fill="#333333" fill-opacity="0.6"/>
</svg>
