<svg width="24" height="25" viewBox="0 0 24 25" fill="none" xmlns="http://www.w3.org/2000/svg">
<rect x="1" y="1.5" width="22" height="22" rx="11" fill="white"/>
<rect x="1" y="1.5" width="22" height="22" rx="11" stroke="#B22234" stroke-width="2"/>
<path d="M15.9997 13.1615H7.99967C7.82286 13.1615 7.65329 13.0912 7.52827 12.9662C7.40325 12.8412 7.33301 12.6716 7.33301 12.4948C7.33301 12.318 7.40325 12.1484 7.52827 12.0234C7.65329 11.8984 7.82286 11.8281 7.99967 11.8281H15.9997C16.1765 11.8281 16.3461 11.8984 16.4711 12.0234C16.5961 12.1484 16.6663 12.318 16.6663 12.4948C16.6663 12.6716 16.5961 12.8412 16.4711 12.9662C16.3461 13.0912 16.1765 13.1615 15.9997 13.1615Z" fill="#B22234"/>
</svg>
