<svg width="11" height="12" viewBox="0 0 11 12" fill="none" xmlns="http://www.w3.org/2000/svg">
<path d="M9.87467 11.2493C9.63162 11.2493 9.42502 11.1643 9.25488 10.9941C9.08474 10.824 8.99967 10.6174 8.99967 10.3743C8.99967 10.1313 9.08474 9.9247 9.25488 9.75456C9.42502 9.58442 9.63162 9.49935 9.87467 9.49935C10.1177 9.49935 10.3243 9.58442 10.4945 9.75456C10.6646 9.9247 10.7497 10.1313 10.7497 10.3743C10.7497 10.6174 10.6646 10.824 10.4945 10.9941C10.3243 11.1643 10.1177 11.2493 9.87467 11.2493ZM4.33301 11.8327C3.36079 11.8327 2.5344 11.7184 1.85384 11.49C1.17329 11.2615 0.833008 10.9868 0.833008 10.666C0.833008 10.4424 0.993424 10.2431 1.31426 10.0681C1.63509 9.8931 2.05801 9.75213 2.58301 9.64518V10.666H3.74967V0.166016L8.41634 2.44102L4.91634 4.24935V9.52852C5.75245 9.57713 6.44759 9.70595 7.00176 9.91497C7.55592 10.124 7.83301 10.3743 7.83301 10.666C7.83301 10.9868 7.49273 11.2615 6.81217 11.49C6.13162 11.7184 5.30523 11.8327 4.33301 11.8327Z" fill="white"/>
</svg>
