<svg width="17" height="17" viewBox="0 0 17 17" fill="none" xmlns="http://www.w3.org/2000/svg">
<path d="M5.83333 11.8333C5.46667 11.8333 5.16667 11.5333 5.16667 11.1667V7.83333C5.16667 7.46667 5.46667 7.16667 5.83333 7.16667C6.2 7.16667 6.5 7.46667 6.5 7.83333V11.1667C6.5 11.5333 6.2 11.8333 5.83333 11.8333ZM8.5 11.8333C8.13333 11.8333 7.83333 11.5333 7.83333 11.1667V5.83333C7.83333 5.46667 8.13333 5.16667 8.5 5.16667C8.86667 5.16667 9.16667 5.46667 9.16667 5.83333V11.1667C9.16667 11.5333 8.86667 11.8333 8.5 11.8333ZM11.1667 11.8333C10.8 11.8333 10.5 11.5333 10.5 11.1667V9.83333C10.5 9.46667 10.8 9.16667 11.1667 9.16667C11.5333 9.16667 11.8333 9.46667 11.8333 9.83333V11.1667C11.8333 11.5333 11.5333 11.8333 11.1667 11.8333ZM12.5 13.1667H4.5C4.13333 13.1667 3.83333 12.8667 3.83333 12.5V4.5C3.83333 4.13333 4.13333 3.83333 4.5 3.83333H12.5C12.8667 3.83333 13.1667 4.13333 13.1667 4.5V12.5C13.1667 12.8667 12.8667 13.1667 12.5 13.1667ZM13.1667 2.5H3.83333C3.1 2.5 2.5 3.1 2.5 3.83333V13.1667C2.5 13.9 3.1 14.5 3.83333 14.5H13.1667C13.9 14.5 14.5 13.9 14.5 13.1667V3.83333C14.5 3.1 13.9 2.5 13.1667 2.5Z" fill="#333333" fill-opacity="0.6"/>
</svg>
