<svg
  width="13"
  height="13"
  viewBox="0 0 13 13"
  xmlns="http://www.w3.org/2000/svg"
>
  <path
    d="M3.83333 9.83333C3.46667 9.83333 3.16667 9.53333 3.16667 9.16667V5.83333C3.16667 5.46667 3.46667 5.16667 3.83333 5.16667C4.2 5.16667 4.5 5.46667 4.5 5.83333V9.16667C4.5 9.53333 4.2 9.83333 3.83333 9.83333ZM6.5 9.83333C6.13333 9.83333 5.83333 9.53333 5.83333 9.16667V3.83333C5.83333 3.46667 6.13333 3.16667 6.5 3.16667C6.86667 3.16667 7.16667 3.46667 7.16667 3.83333V9.16667C7.16667 9.53333 6.86667 9.83333 6.5 9.83333ZM9.16667 9.83333C8.8 9.83333 8.5 9.53333 8.5 9.16667V7.83333C8.5 7.46667 8.8 7.16667 9.16667 7.16667C9.53333 7.16667 9.83333 7.46667 9.83333 7.83333V9.16667C9.83333 9.53333 9.53333 9.83333 9.16667 9.83333ZM10.5 11.1667H2.5C2.13333 11.1667 1.83333 10.8667 1.83333 10.5V2.5C1.83333 2.13333 2.13333 1.83333 2.5 1.83333H10.5C10.8667 1.83333 11.1667 2.13333 11.1667 2.5V10.5C11.1667 10.8667 10.8667 11.1667 10.5 11.1667ZM11.1667 0.5H1.83333C1.1 0.5 0.5 1.1 0.5 1.83333V11.1667C0.5 11.9 1.1 12.5 1.83333 12.5H11.1667C11.9 12.5 12.5 11.9 12.5 11.1667V1.83333C12.5 1.1 11.9 0.5 11.1667 0.5Z"
  /> 
</svg>